<?xml version="1.0" encoding="utf-8"?>
<!-- Generator: Adobe Illustrator 19.0.0, SVG Export Plug-In . SVG Version: 6.00 Build 0)  -->
<svg version="1.1" id="Capa_2" xmlns="http://www.w3.org/2000/svg" xmlns:xlink="http://www.w3.org/1999/xlink" x="0px" y="0px"
	 viewBox="0 0 3000 500" style="enable-background:new 0 0 3000 500;" xml:space="preserve">
<style type="text/css">
	.st0{stroke:#000000;stroke-miterlimit:10;}
</style>
<rect id="XMLID_14_" y="117.4" class="st0" width="0" height="0"/>
<rect id="XMLID_15_" x="9.8" y="233.5" class="st0" width="258.1" height="16.1"/>
<rect id="XMLID_16_" x="358.2" y="301.3" class="st0" width="106.5" height="198.7"/>
<rect id="XMLID_17_" x="93.7" y="414.2" class="st0" width="125.8" height="9.7"/>
<rect id="XMLID_18_" x="577.5" y="340" class="st0" width="400" height="19.4"/>
<rect id="XMLID_19_" x="1135.6" y="301.3" class="st0" width="90.3" height="198.7"/>
<rect id="XMLID_20_" x="1319.5" y="207.7" class="st0" width="80.6" height="292.3"/>
<rect id="XMLID_21_" x="984" y="399.7" class="st0" width="71" height="16.1"/>
<rect id="XMLID_22_" x="1664.6" y="311" class="st0" width="538.7" height="12.9"/>
<rect id="XMLID_23_" x="1493.7" y="249.7" class="st0" width="83.9" height="250.3"/>
<rect id="XMLID_24_" x="1693.7" y="391.6" class="st0" width="603.2" height="12.9"/>
<rect id="XMLID_25_" x="2371.1" y="249.7" class="st0" width="106.5" height="250.3"/>
<rect id="XMLID_26_" x="2555" y="330.3" class="st0" width="64.5" height="169.7"/>
<rect id="XMLID_27_" x="2796.9" y="327.1" class="st0" width="203.1" height="172.9"/>
<rect id="XMLID_28_" x="2667.9" y="359.4" class="st0" width="87.1" height="9.7"/>
</svg>
