<?xml version="1.0" encoding="utf-8"?>
<!-- Generator: Adobe Illustrator 19.0.0, SVG Export Plug-In . SVG Version: 6.00 Build 0)  -->
<svg version="1.1" id="BLOQUES" xmlns="http://www.w3.org/2000/svg" xmlns:xlink="http://www.w3.org/1999/xlink" x="0px" y="0px"
	 viewBox="0 0 3000 500" style="enable-background:new 0 0 3000 500;" xml:space="preserve">
<g id="Capa_x0020_1">
	<rect x="0"   y="334" width="66" height="162"/>
	<rect x="160" y="274" width="66" height="222"/>
	<rect x="227" y="290" width="66" height="162"/>
	<rect x="0"   y="385" width="223" height="111"/>
	<rect x="160" y="352" width="223" height="144"/>
	<rect x="435" y="241" width="66" height="255"/>
	<rect x="522" y="346" width="67" height="150"/>
	<rect x="401" y="389" width="223" height="107"/>
	<rect x="589" y="261" width="200" height="235"/>
	<rect x="864" y="410" width="66" height="86"/>
	<rect x="921" y="383" width="66" height="113"/>
	<rect x="1078" y="353" width="173" height="113"/>
	<rect x="1251" y="353" width="173" height="143"/>
	<rect x="1518" y="353" width="79" height="143"/>
	<rect x="1690" y="353" width="117" height="219"/>
	<rect x="1807" y="277" width="160" height="332"/>
	<rect x="2065" y="304" width="160" height="193"/>
	<rect x="2320" y="251" width="225" height="250"/>
	<rect x="2280" y="360" width="155" height="140"/>
	<rect x="2690" y="-4" width="310" height="156"/>
	<rect x="2690" y="284" width="310" height="212"/>
</g>
</svg>
